# Blender 3.6.0
# www.blender.org
mtllib scenario.mtl
o Plane
v 35.512436 10.459122 -35.512436
v -35.512436 10.459122 -35.512436
v 35.512436 10.459127 35.512436
v -35.512436 10.459127 35.512436
v 35.512436 35.621239 35.512432
v 35.512436 35.621231 -35.512440
v -35.512436 35.621231 -35.512440
v -35.512436 35.621239 35.512432
vn -0.0000 -0.0000 -1.0000
vn -0.0000 -0.0000 1.0000
vn 1.0000 -0.0000 -0.0000
vn -1.0000 -0.0000 -0.0000
vn -0.0000 1.0000 -0.0000
vt 1.000000 1.000000
vt 0.000000 1.000000
vt 0.000000 0.000000
vt 1.000000 0.000000
vt 0.001730 0.001731
vt 0.998270 0.001731
vt 0.998270 0.998269
vt 0.001730 0.998269
s 0
usemtl Material.001
f 4/1/1 8/1/1 5/2/1 3/2/1
f 1/3/2 6/3/2 7/4/2 2/4/2
f 2/4/3 7/4/3 8/1/3 4/1/3
f 3/2/4 5/2/4 6/3/4 1/3/4
usemtl Material.002
f 1/5/5 2/6/5 4/7/5 3/8/5
